####
#
# OBJ File Generated by Meshlab
#
####
# Object cube.obj
#
# Vertices: 8
# Faces: 12
#
####
mtllib ./cube.mtl

vn 1.570796 -1.570796 -1.570796
v 1.000000 -1.000000 -1.000000
vn 1.570797 -1.570797 1.570796
v 1.000000 -1.000000 1.000000
vn -1.570797 -1.570797 1.570796
v -1.000000 -1.000000 1.000000
vn -1.570796 -1.570796 -1.570796
v -1.000000 -1.000000 -1.000000
vn 1.570798 1.570798 -1.570796
v 1.000000 1.000000 -0.999999
vn 1.570796 1.570797 1.570798
v 0.999999 1.000000 1.000001
vn -1.570797 1.570797 1.570796
v -1.000000 1.000000 1.000000
vn -1.570796 1.570796 -1.570796
v -1.000000 1.000000 -1.000000
# 8 vertices, 0 vertices normals


usemtl material_0
vt 1.000000 0.333333
vt 1.000000 0.666667
vt 0.666667 0.666667
f 2/1/2 3/2/3 4/3/4
vt 0.666667 0.333333
vt 0.666667 0.000000
f 8/1/8 7/4/7 6/5/6
vt 0.000000 0.333333
vt 0.000000 0.000000
vt 0.333333 0.000000
f 5/6/5 6/7/6 2/8/2
f 6/8/6 7/5/7 3/4/3
vt 0.333333 1.000000
vt 0.000000 1.000000
vt 0.000000 0.666667
f 3/9/3 7/10/7 8/11/8
vt 0.333333 0.333333
vt 0.333333 0.666667
f 1/12/1 4/13/4 8/11/8
f 1/4/1 2/1/2 4/3/4
vt 1.000000 0.000000
f 5/14/5 8/1/8 6/5/6
f 1/12/1 5/6/5 2/8/2
f 2/12/2 6/8/6 3/4/3
f 4/13/4 3/9/3 8/11/8
f 5/6/5 1/12/1 8/11/8
# 12 faces, 14 coords texture

# End of File
