# Blender v3.1.2 OBJ File: ''
# www.blender.org
mtllib pyramid.mtl
o pyramid
v 0.000000 -0.000000 1.000000
v 0.000000 0.000000 0.000000
v 1.000000 0.000000 0.000000
v 1.000000 -0.000000 1.000000
v 0.500000 1.600000 0.500000
vn -0.6408 -0.4228 0.6408
vn -0.6408 -0.4228 -0.6408
vn 0.6408 -0.4228 -0.6408
vn 0.6408 -0.4228 0.6408
vn 0.0000 1.0000 0.0000
g pyramid_pyramid_Default_OBJ
usemtl Default_OBJ
s 1
f 1//1 2//2 3//3
f 4//4 1//1 3//3
f 5//5 3//3 2//2
f 1//1 5//5 2//2
f 4//4 5//5 1//1
f 5//5 4//4 3//3
