# Blender v3.0.1 OBJ File: 'droids.blend'
# www.blender.org
mtllib one_step.mtl
o Plane_Plane.003
v 1000000.000000 0.000000 199998.953125
v 1000000.000000 0.000000 -1.043711
v -1000000.000000 0.000000 199999.046875
v -1000000.000000 0.000000 -0.956289
v 8.994090 1.000000 -1.000000
v 8.994090 0.000000 -1.000000
v -8.994090 1.000000 -1.000000
v -8.994090 0.000000 -1.000000
v 8.994090 1.000000 -1.000000
v 8.985348 1.000000 -200001.000000
v -8.994090 1.000000 -1.000000
v -9.002832 1.000000 -200001.000000
vt 0.000000 0.000000
vt 1.000000 0.000000
vt 1.000000 1.000000
vt 0.000000 1.000000
vt 0.000000 0.000000
vt 1.000000 0.000000
vt 1.000000 1.000000
vt 0.000000 1.000000
vt 0.000000 0.000000
vt 1.000000 0.000000
vt 1.000000 1.000000
vt 0.000000 1.000000
vn 0.0000 1.0000 0.0000
vn -0.0000 0.0000 -1.0000
usemtl None
s off
f 1/1/1 2/2/1 4/3/1 3/4/1
f 5/5/2 6/6/2 8/7/2 7/8/2
f 9/9/1 10/10/1 12/11/1 11/12/1
