# Blender v3.0.0 OBJ File: ''
# www.blender.org
mtllib one_step.mtl
o bg_Plane_Plane.011
v -200.179993 -0.000004 100.000000
v -0.180000 -0.000004 100.000000
v -0.180000 0.000004 -100.000000
v -200.179993 0.000004 -100.000000
v -0.180000 0.643996 100.000000
v -0.180008 -0.000004 100.000000
v -0.180008 0.000004 -100.000000
v -0.180000 0.644004 -100.000000
v -0.180000 0.643996 100.000000
v 199.820007 0.643996 100.000000
v 199.820007 0.644004 -100.000000
v -0.180000 0.644004 -100.000000
vt 0.000000 0.000000
vt 1.000000 0.000000
vt 1.000000 1.000000
vt 0.000000 1.000000
vt 0.000000 0.000000
vt 1.000000 0.000000
vt 1.000000 1.000000
vt 0.000000 1.000000
vt 0.000000 0.000000
vt 1.000000 0.000000
vt 1.000000 1.000000
vt 0.000000 1.000000
vn 0.0000 1.0000 0.0000
vn 1.0000 -0.0000 -0.0000
usemtl None.012
s 1
f 1/1/1 2/2/1 3/3/1 4/4/1
f 5/5/2 6/6/2 7/7/2 8/8/2
f 9/9/1 10/10/1 11/11/1 12/12/1
