# Blender v3.0.1 OBJ File: 'droids.blend'
# www.blender.org
mtllib three_plane.mtl
o back_wall
v -7.956050 -0.575123 -31.137426
v 6.866421 18.825954 -31.160736
v -8.128655 18.825954 -31.160736
v 6.866421 -0.575123 -31.137426
vn 0.0000 0.0012 1.0000
usemtl Khaki
s 1
f 1//1 2//1 3//1
f 1//1 4//1 2//1
o ceiling
v -8.128655 18.825954 -31.160744
v 6.866421 18.841688 -1.323105
v -8.128655 18.841688 -1.323105
v 6.866421 18.825954 -31.160744
vn 0.0000 -1.0000 0.0005
usemtl Khaki
s 1
f 5//2 6//2 7//2
f 5//2 8//2 6//2
o floor
v 6.866421 -0.559382 -1.299789
v -7.956050 -0.575123 -31.137426
v -8.042353 -0.559382 -1.299789
v 6.866421 -0.575123 -31.137426
vn 0.0000 1.0000 -0.0005
usemtl Khaki
s 1
f 9//3 10//3 11//3
f 9//3 12//3 10//3
o left_wall
v -8.042353 -0.559382 -1.299789
v -8.128655 18.825954 -31.160744
v -8.128655 18.841688 -1.323105
v -7.956050 -0.575123 -31.137426
vn 1.0000 0.0061 0.0011
vn 1.0000 0.0073 0.0018
vn 1.0000 0.0044 -0.0000
vn 1.0000 0.0089 0.0029
usemtl BloodyRed
s 1
f 13//4 14//5 15//6
f 13//4 16//7 14//5
o right_wall
v 6.866421 -0.559382 -1.299789
v 6.866421 18.825954 -31.160744
v 6.866421 -0.575123 -31.137426
v 6.866421 18.841688 -1.323105
vn -1.0000 0.0000 0.0000
usemtl DarkGreen
s 1
f 17//8 18//8 19//8
f 17//8 20//8 18//8
