# Blender v3.0.0 OBJ File: ''
# www.blender.org
mtllib three_plane.mtl
o bg_bg_bg_right_wall.001
v 3.926105 0.143084 145.951447
v 3.926105 97.069801 -3.353309
v 3.926105 0.064404 -3.236736
v 3.926105 97.148438 145.834885
v -70.186256 0.064404 -3.236736
v 3.926105 97.069801 -3.353279
v -71.049278 97.069801 -3.353279
v 3.926105 0.064404 -3.236736
v -71.049278 97.069801 -3.353309
v 3.926105 97.148438 145.834885
v -71.049278 97.148438 145.834885
v 3.926105 97.069801 -3.353309
v 3.926105 0.143084 145.951447
v -70.186256 0.064404 -3.236736
v -70.617760 0.143084 145.951447
v 3.926105 0.064404 -3.236736
v -70.617760 0.143084 145.951447
v -71.049278 97.069801 -3.353309
v -71.049278 97.148438 145.834885
v -70.186256 0.064404 -3.236736
vn -1.0000 -0.0000 0.0000
vn 0.0000 0.0012 1.0000
vn 0.0000 -1.0000 0.0005
vn 0.0000 1.0000 -0.0005
vn 1.0000 0.0061 0.0011
vn 1.0000 0.0073 0.0018
vn 1.0000 0.0044 -0.0000
vn 1.0000 0.0089 0.0029
usemtl DarkGreen.005
s 1
f 1//1 2//1 3//1
f 1//1 4//1 2//1
usemtl Khaki.005
f 5//2 6//2 7//2
f 5//2 8//2 6//2
f 9//3 10//3 11//3
f 9//3 12//3 10//3
f 13//4 14//4 15//4
f 13//4 16//4 14//4
usemtl BloodyRed.005
f 17//5 18//6 19//7
f 17//5 20//8 18//6
