# Blender v3.0.1 OBJ File: 'droids.blend'
# www.blender.org
mtllib two_plane.mtl
o Plane.001_Plane.002
v 0.043711 2000000.000000 1000000.000000
v -0.043711 0.000000 1000000.000000
v 0.043711 2000000.000000 -1000000.000000
v -0.043711 0.000000 -1000000.000000
v -1000000.000000 0.000000 1000000.000000
v 1000000.000000 0.000000 1000000.000000
v -1000000.000000 0.000000 -1000000.000000
v 1000000.000000 0.000000 -1000000.000000
vt 0.000000 0.000000
vt 1.000000 0.000000
vt 1.000000 1.000000
vt 0.000000 1.000000
vt 0.000000 0.000000
vt 1.000000 0.000000
vt 1.000000 1.000000
vt 0.000000 1.000000
vn 1.0000 -0.0000 0.0000
vn 0.0000 1.0000 0.0000
usemtl None
s off
f 1/1/1 2/2/1 4/3/1 3/4/1
f 5/5/2 6/6/2 8/7/2 7/8/2
